<svg xmlns="http://www.w3.org/2000/svg" width="28" height="28" viewBox="0 0 28 28"><defs><style>.a{fill:#c7a478;}.b,.d{fill:none;}.b{stroke:#c7a478;}.c{stroke:none;}</style></defs><g transform="translate(-0.194 -0.354)"><g transform="translate(9.741 7.151)"><path class="a" d="M29.375,0,27.556,0a3.2,3.2,0,0,0-3.364,3.452V5.044H22.363a.286.286,0,0,0-.286.286V7.636a.286.286,0,0,0,.286.286h1.829v5.819a.286.286,0,0,0,.286.286h2.386a.286.286,0,0,0,.286-.286V7.922h2.139a.286.286,0,0,0,.286-.286V5.33a.286.286,0,0,0-.286-.286H27.15V3.695c0-.649.155-.978,1-.978h1.225a.286.286,0,0,0,.286-.286V.289A.286.286,0,0,0,29.375,0Z" transform="translate(-22.077)"/></g><g class="b" transform="translate(0.194 0.354)"><circle class="c" cx="14" cy="14" r="14"/><circle class="d" cx="14" cy="14" r="13.5"/></g></g></svg>