<svg xmlns="http://www.w3.org/2000/svg" width="28" height="28" viewBox="0 0 28 28"><defs><style>.a{fill:#c7a478;}.b,.d{fill:none;}.b{stroke:#c7a478;}.c{stroke:none;}</style></defs><g transform="translate(-1235 -4113)"><g transform="translate(1242 4120)"><g transform="translate(0)"><path class="a" d="M9.421,0H4.282A4.283,4.283,0,0,0,0,4.283V9.422A4.283,4.283,0,0,0,4.282,13.7H9.421A4.283,4.283,0,0,0,13.7,9.422V4.283A4.283,4.283,0,0,0,9.421,0Zm3,9.422a3,3,0,0,1-3,3H4.282a3,3,0,0,1-3-3V4.283a3,3,0,0,1,3-3H9.421a3,3,0,0,1,3,3Z"/></g><g transform="translate(3.426 3.426)"><path class="a" d="M131.426,128a3.426,3.426,0,1,0,3.426,3.426A3.426,3.426,0,0,0,131.426,128Zm0,5.567a2.141,2.141,0,1,1,2.141-2.141A2.144,2.144,0,0,1,131.426,133.567Z" transform="translate(-128 -128)"/></g><g transform="translate(10.078 2.713)"><ellipse class="a" cx="0.457" cy="0.457" rx="0.457" ry="0.457"/></g></g><g class="b" transform="translate(1235 4113)"><circle class="c" cx="14" cy="14" r="14"/><circle class="d" cx="14" cy="14" r="13.5"/></g></g></svg>