<svg xmlns="http://www.w3.org/2000/svg" width="28" height="28" viewBox="0 0 28 28"><defs><style>.a{fill:#c7a478;}.b,.d{fill:none;}.b{stroke:#c7a478;}.c{stroke:none;}</style></defs><g transform="translate(0 -0.354)"><g transform="translate(6.616 8.506)"><g transform="translate(0 0)"><path class="a" d="M14.138,49.36a6.043,6.043,0,0,1-1.67.458,2.882,2.882,0,0,0,1.275-1.6,5.792,5.792,0,0,1-1.838.7A2.9,2.9,0,0,0,6.892,50.9a2.985,2.985,0,0,0,.067.661A8.2,8.2,0,0,1,.984,48.528,2.9,2.9,0,0,0,1.875,52.4a2.862,2.862,0,0,1-1.31-.357v.032a2.912,2.912,0,0,0,2.322,2.848,2.893,2.893,0,0,1-.76.1,2.563,2.563,0,0,1-.549-.049A2.926,2.926,0,0,0,4.287,56.99,5.824,5.824,0,0,1,.694,58.227,5.429,5.429,0,0,1,0,58.187a8.16,8.16,0,0,0,4.447,1.3,8.193,8.193,0,0,0,8.25-8.248c0-.128,0-.252-.011-.375A5.782,5.782,0,0,0,14.138,49.36Z" transform="translate(0.445 -47.638)"/></g></g><g class="b" transform="translate(0 0.354)"><circle class="c" cx="14" cy="14" r="14"/><circle class="d" cx="14" cy="14" r="13.5"/></g></g></svg>